{"accessors":[{"bufferView":0,"byteOffset":0,"componentType":5126,"count":3432,"max":[0.834306478500366,1.89117097854614,0.118487387895584],"min":[-0.834306478500366,-1.89117097854614,-0.118487238883972],"normalized":false,"type":"VEC3"},{"bufferView":1,"byteOffset":0,"componentType":5126,"count":3432,"max":[1.0,0.895748555660248,0.444618254899979,1.0],"min":[-0.890156745910645,-0.994022369384766,-0.444610208272934,-1.0],"normalized":false,"type":"VEC4"},{"bufferView":2,"byteOffset":0,"componentType":5126,"count":3432,"max":[1.0,1.0,1.0],"min":[-1.0,-1.0,-1.0],"normalized":false,"type":"VEC3"},{"bufferView":3,"byteOffset":0,"componentType":5126,"count":3432,"max":[0.816605806350708,0.921793222427368],"min":[0.314173370599747,0.032374382019043],"normalized":false,"type":"VEC2"},{"bufferView":4,"byteOffset":0,"componentType":5123,"count":8415,"max":[3431.0],"min":[0.0],"normalized":false,"type":"SCALAR"}],"asset":{"generator":"Godot Engine v4.4.stable.official@4c311cbee68c0b66ff8ebb8b0defdd9979dd2a41","version":"2.0"},"bufferViews":[{"buffer":0,"byteLength":41184,"byteOffset":0,"byteStride":12,"target":34962},{"buffer":0,"byteLength":54912,"byteOffset":41184,"byteStride":16,"target":34962},{"buffer":0,"byteLength":41184,"byteOffset":96096,"byteStride":12,"target":34962},{"buffer":0,"byteLength":27456,"byteOffset":137280,"byteStride":8,"target":34962},{"buffer":0,"byteLength":16830,"byteOffset":164736,"target":34963}],"buffers":[{"byteLength":181568,"uri":"guns_low_poly0.bin"}],"extensionsUsed":["GODOT_single_root"],"images":[{"uri":"textures%2FGrey_emission000.png"},{"uri":"textures%2FGrey_emission002.png"}],"materials":[{"doubleSided":true,"emissiveFactor":[0.0,0.0,0.0],"emissiveTexture":{"index":1},"extensions":{},"name":"Grey","pbrMetallicRoughness":{"baseColorFactor":[1.0,1.0,1.0,1.0],"baseColorTexture":{"index":0},"metallicFactor":0.0,"roughnessFactor":0.688769638538361}}],"meshes":[{"extras":{"targetNames":[]},"primitives":[{"attributes":{"NORMAL":2,"POSITION":0,"TANGENT":1,"TEXCOORD_0":3},"indices":4,"material":0,"mode":4}]}],"nodes":[{"children":[1],"name":"ShotgunLowPoly"},{"mesh":0,"name":"MG1_Grey_0","rotation":[0.0,0.0,-0.70710676908493,0.70710676908493]}],"samplers":[{"magFilter":9729,"minFilter":9987,"wrapS":10497,"wrapT":10497}],"scene":0,"scenes":[{"nodes":[0]}],"textures":[{"sampler":0,"source":0},{"sampler":0,"source":1}]}